<svg xmlns="http://www.w3.org/2000/svg" width="256" height="256" viewBox="0 0 256 256">
  <rect id="background" fill="#2A94D6" x="0" y="0.768736254" width="256" height="255.003891" rx="10.6666667"></rect>
  <path d="M170.75857,205.822094 C166.815594,213.677362 160.06714,217.604937 150.513005,217.604937 C118.362583,217.604937 100.316155,217.453877 96.3731787,217.151751 C96.8281375,170.624395 97.5863908,117.979784 98.6479614,59.2163384 C95.1599439,59.2163384 90.6862495,59.0652778 85.226744,58.7631521 C80.677156,58.6120892 77.5683175,58.536559 75.9001353,58.536559 C75.2935235,51.4366053 75.4451742,43.8835765 76.3550918,35.8772458 C82.1179032,35.8772458 90.0037374,35.9527761 100.012831,36.1038389 L111.159266,36.1038389 C116.922077,35.9527761 121.016645,35.8772458 123.443092,35.8772458 C146.342685,35.8772458 160.142894,40.106942 164.844135,48.5664612 C169.848682,57.6302318 172.350918,69.3374265 172.350918,83.6883965 C172.350918,95.3202355 170.986062,105.516824 168.256309,114.278469 C166.436474,120.16992 163.10016,125.154919 158.247266,129.233616 C164.16173,132.405936 168.71125,138.75048 171.895961,148.267439 C174.625714,156.575895 175.99057,166.017181 175.99057,176.59158 C175.99057,189.129796 174.246587,198.873204 170.75857,205.822094 L170.75857,205.822094 Z M146.645874,68.959843 C145.584304,64.2768949 142.323815,61.3312136 136.864309,60.1227109 C133.982903,59.5184595 129.205908,59.3673989 122.533179,59.6695246 C122.229873,65.2588498 122.078222,85.6520277 122.078222,120.84967 C126.021198,120.698607 129.88829,120.623077 133.679614,120.623077 C138.987466,120.169888 142.247955,118.885874 143.461179,116.770994 C147.252502,110.426354 149.148135,101.815901 149.148135,90.9393768 C149.148135,83.6883603 148.314057,76.3619223 146.645874,68.959843 L146.645874,68.959843 Z M149.148135,158.46413 C146.873341,147.134417 140.276538,141.469645 129.357527,141.469645 C127.386038,141.469645 124.883803,141.620706 121.850744,141.922831 C122.15405,153.705733 122.3057,171.379821 122.3057,194.945624 C127.916859,196.909441 135.04444,196.75838 143.688657,194.492438 C148.086592,191.773307 150.285527,185.655353 150.285527,176.138394 C150.285527,172.21076 149.9064,166.319398 149.148135,158.46413 L149.148135,158.46413 Z" id="B" fill="#FFFFFF"></path>
</svg>
